<?xml version="1.0" encoding="UTF-8"?>
<svg id="Layer_2" data-name="Layer 2" xmlns="http://www.w3.org/2000/svg" width="425.2" height="275.29" viewBox="0 0 425.2 275.29">
  <g id="Layer_1-2" data-name="Layer 1">
    <g>
      <g>
        <path d="M84.64,216.73h-20c-3.1-15.1-24.93-16.97-35.29-8.53-13.07,10.64-12.47,37.66,2.41,46.42,12.96,7.63,32.6,3.05,34.06-13.77h-20.58v-14.7h39.11c.18,0,.36-.56.59-.58l.59.58c.66.41-.3.67-.3.88v46.17h-14.11l-.59-11.17c-8.95,12.63-24.64,15.38-39.06,11.72-26.92-6.84-38.1-38.26-27.49-62.69,15.17-34.96,73.09-33.85,80.67,5.69Z"/>
        <path d="M204.91,187.91c14.04,1.42,23.55,10.31,22.05,24.99-.79,7.73-6.4,12.16-12.34,16.17,20.05,5.67,19.6,33.51.9,41.2-2.74,1.13-9.57,2.92-12.37,2.92h-39.11v-85.28h40.87ZM182.85,222.02h17.94c2.32,0,6.23-3.59,7.05-5.89,1.9-5.35.28-11.05-5.54-12.68-.51-.14-4.2-.85-4.45-.85h-15v19.41ZM182.85,257.31h18.53c.54,0,3.72-1.08,4.45-1.43,6.84-3.35,6.24-13.98-.21-17.51-.45-.25-4.01-1.64-4.24-1.64h-18.53v20.58Z"/>
        <path d="M359.29,273.19h-17.64c-.07-1.46.11-2.96,0-4.42-.06-.88.46-1.7-.87-1.45-14.28,13.83-43.13,9.07-40.23-14.94,2.19-18.12,24.12-14.37,36.28-18.41,3.54-1.18,4.68-2.4,4.18-6.3-1.18-9.17-21.56-7.96-21.12,2.59h-17.64c1.48-20.11,23.76-25.58,40.46-20.76,9,2.6,16.58,10.74,16.58,20.47v43.23ZM341.64,243.79c-6.55,3.57-27.85,2.07-22.39,14.45,2.2,4.98,12.81,3.81,16.71,1.33,5.74-3.65,5.41-9.66,5.68-15.78Z"/>
        <path d="M296.36,246.72h-44.7c.9,11.17,9.8,17.18,20.57,13.22,3.24-1.19,5.77-5.57,6.19-5.57h17.35c-8.16,27.8-51.21,27.89-60,.3-8.69-27.25,10.17-53.28,39.67-44.97,11.5,3.24,20.91,15.95,20.91,27.9v9.12ZM278.72,234.37c-.8-16.19-25.86-16.07-26.47,0h26.47Z"/>
        <path d="M122.74,208.08c45.41-1.81,47.01,63.11,6.29,66.86-48.7,4.49-51.67-65.05-6.29-66.86ZM123.91,222.77c-14.57.46-17.58,18.02-12.91,29.06,5.14,12.15,23.56,11.07,27.45-1.57,3.6-11.68.65-27.96-14.54-27.48Z"/>
        <path d="M425.16,273.19h-17.64v-38.52c0-1.86-1.7-6.66-2.94-8.23-4.48-5.69-15.43-3.61-18.84,2.33-.3.53-1.74,3.91-1.74,4.14v40.29h-17.64v-62.93h17.06v7.65c11.14-15.72,39.09-12.42,41.16,8.53,1.05,10.63.43,23.77.62,34.67.07,4.06-.51,8.2-.03,12.08Z"/>
      </g>
      <path d="M417.42,27.93c2.02,4.33-3.27,9.7-14.61,2.13,0,0-9.45-6.3-23.63-5.06-8.91.78-14.23,5.17-16.29,8-2.17,2.97-3.74,4.91-5.44,8.41-13.47,27.63-13.14,60.27-22.02,88.7l-.02.06c-1.3,4.16-5.52,7.04-10.33,7.05l-228.91.39h0c-3.11-.65-5.58-2.78-6.4-5.55-7.15-24.25-10.1-49.51-16.29-74.01-4.56-18.06-6.61-41.35-29.44-45.34-5.39-.94-16.84-1.52-9.69-6.5C37.54,3.98,44.87.34,57.07.11c95.85.63,191.93-1.12,287.63.92,16.28.35,44.03.46,56.63,6.44,10.91,5.18,14.01,13.08,16.09,20.46Z"/>
    </g>
  </g>
</svg>