<?xml version="1.0" encoding="UTF-8"?>
<svg id="Layer_2" data-name="Layer 2" xmlns="http://www.w3.org/2000/svg" width="385.78" height="137.6" viewBox="0 0 385.78 137.6">
  <g id="Layer_1-2" data-name="Layer 1">
    <path d="M385.36,27.93c2.02,4.33-3.27,9.7-14.61,2.13,0,0-9.45-6.3-23.63-5.06-8.91.78-14.23,5.17-16.29,8-2.17,2.97-3.74,4.91-5.44,8.41-13.47,27.63-13.14,60.27-22.02,88.7l-.02.06c-1.3,4.16-5.52,7.04-10.33,7.05l-228.91.39h0c-3.11-.65-5.58-2.78-6.4-5.55-7.15-24.25-10.1-49.51-16.29-74.01-4.56-18.06-6.61-41.35-29.44-45.34-5.39-.94-16.84-1.52-9.69-6.5C5.48,3.98,12.81.34,25.01.11c95.85.63,191.93-1.12,287.63.92,16.28.35,44.03.46,56.63,6.44,10.91,5.18,14.01,13.08,16.09,20.46Z"/>
  </g>
</svg>