<?xml version="1.0" encoding="UTF-8"?>
<svg id="Layer_1" data-name="Layer 1" xmlns="http://www.w3.org/2000/svg" width="650.07mm" height="323.52mm" viewBox="0 0 1842.71 917.06">
  <defs>
    <style>
      .cls-1 {
        stroke: #000;
        stroke-miterlimit: 10;
        stroke-width: 2px;
      }
    </style>
  </defs>
  <g>
    <path d="M79.76,633.14c12.14-.16,22.36,8.78,26.15,19.84,14.5-1.28,26.49,5.19,34.25,17.25,2.9,4.51,10.9,22.26,6.18,26.01l-143.89.7c-5.65-1.67-.02-16.87,1.82-20.78,7.26-15.47,22.61-22.44,39.28-21.23,4.95-10.89,15.24-17.67,26.26-21.4-.89-13.28,2.15-26.66.98-39.93s-8.81-10.03-19.24-12.76c-14.22-3.72-26.71-13.86-32.65-27.35-8.47-19.19-3.88-20.23,15.08-17.08,17.01,2.82,32.54,11.53,36.54,29.46,1.04,4.65-.39,12.2,4.23,15.26,1.11-8.88.2-16.77,3.25-25.26,7.67-21.38,28.66-36.11,51.28-37.72,16.67-1.19,13.76,5.43,9.74,18.74-5.77,19.13-18.21,30.5-37.25,35.75-6.16,1.7-14.94.5-18.21,6.79-2.11,4.07-3.47,14.44-3.79,19.21-.77,11.22.54,23.19,0,34.48ZM77.45,659.31c-5.62,1.62-1.82,10.06,3.37,6.4,2.15-1.51,1.62-7.84-3.37-6.4ZM53.44,674.25c-4.05,1-3.23,7.92.81,7.92,5.06,0,4.24-9.16-.81-7.92Z"/>
    <path d="M120.81,118.94c42.86,19.95,39.06,77.12,17.41,111.92-10.3,16.55-29.71,34.1-49.92,36.08-10.43,1.02-20.01,1.95-21.38-10.6-1.81-16.64,23.02-51.3,31.41-67.37,11.11-21.28,23.25-45.51,22.49-70.02Z"/>
    <path d="M61.79,262.94c-4.51-2.91-9.35-5.52-13.46-9.03-47.59-40.64,1.56-151.39,58.53-139.53,10.5,2.19,7.25,12.35,5.21,20.32-4.16,16.21-14.99,36.18-22.74,51.26-12.13,23.62-32.9,48.98-27.53,76.98Z"/>
    <g>
      <path d="M484.69,720.62l-7.23.28-1.64,2.36-2.99,36.5,1.99-.51.94,1.9c-3.59,28.67-6.5,57.43-9.94,86.12-.24,1.97.35,4.2.02,6.03-.39,2.2-3.29,1.93-3.91,7.06-1.33,11.01-1.02,22.89-2.13,33.89-.72,7.09-.08,13.43-6.84,17.16-13.16,7.27-66.29,6.04-82.65,4.34-6.76-.7-20.19-1.78-23.93-8.07-3.79-16.86-4.53-34.68-6.57-51.93h-4s-12.09-94.56-12.09-94.56l2.08-2.78c-2.97-10.02-2.8-22.02-5.28-31.91-1.26-5.02-3.48-1.59-7.73-3.23-3.33-1.94-2.55-24.41.24-27.28,1.05-1.08,3.71-1.14,5.23-1.27,41.64-3.55,91.31.79,134.09.09,6.31-.1,26.17-3.24,30.42.48,3.81,3.34,3.83,20.4,1.89,25.33ZM464.83,758.76l2.99-38-139.99,3.01,6,34.99h131ZM454.83,855.76h-107l5.1,45.4c.2,1.39.67,3.32,1.92,4.08,2.17,1.32,22.53,3.3,26.49,3.51,11.92.64,27.11.65,39.04.06,4.48-.22,28.45-2.39,29.96-5.04l4.49-48.01Z"/>
      <path d="M471.84,689.77l-148.01,2c-.25-4.86.59-21.33,4.43-24.08,1.08-.77,14.17-1.83,17.04-1.96,11.64-.55,23.51,1.2,35-1,26.79,2.55,57.87-4.13,84.1-1.01,3.96.47,3.88,2.69,4.94,6.06,1.98,6.27,2.7,13.46,2.51,20Z"/>
    </g>
    <path d="M553.85,798.66c3.31,4.14,17.74,4.8,15,12.39-.39,1.07-2.54,2.87-3.71,3.05-3.56.54-21.97-10.16-27.24-10.79-2.74-1.49-3.88-4.49-2.73-7.34,4.08-4.41,10.26-25.9,14.9-27.12,12-3.14,1.46,16.96-1.25,20.8-.06.79.95.48,1.54.33,9.16-2.39,22.26-8.95,31-13.26,74.15-36.5,134.17-100.94,165.51-177.29,1.61-2.19,5.21-2.75,7.51-1.35,2.82,3.18-1.4,10.67-2.84,14.14-2.29,5.55-5.37,11.67-8.1,17.06-38.89,76.97-108.76,139.1-189.6,169.38Z"/>
    <path d="M394.8,115.95c-73.9-.37-146.58,23.32-204.31,69.26-4.28,1.28-7.55-4.08-4.38-7.98,2.1-2.59,13.81-10.59,17.38-13.1,54.45-38.36,122.78-57.36,189.31-57.19-.79-5.19-11.54-9.1-9.27-14.69,1.6-3.93,4.02-3.84,7.22-1.75,2.24,1.46,17.82,17.98,18.92,20.07,1.53,2.91,1.93,4.85-.34,7.41-.94,1.06-18.62,14.73-19.77,15.21-3.16,1.32-7.31,1.67-8.34-2.22-1.48-5.61,11.59-10.15,13.59-15.01Z"/>
    <path d="M767.81,347.93c5.07-3.36,5.48-17.15,13.28-14.83,3.23.96,2.94,4.28,2.25,6.85-.54,2.04-10.34,21.7-11.64,23.37-2.25,2.89-5.37,1.67-8.3.5-2-.8-21.9-12.25-22.67-13.32-1.15-1.6-1.38-4.11-.77-5.91,2.4-7.07,14.53,4.88,18.84,3.84-22.53-56.21-58.28-107.57-107.06-143.93-3.76-18.22,14.6-.71,20.08,3.91,42.89,36.17,76.91,86.88,96,139.51Z"/>
    <path d="M183.8,726.95c34.39,29.16,75.07,49.88,117.39,65.09,2.19,1.21,2.02,3.91,1.11,5.91-.7,1.17-1.73,1.79-3.06,2-5.01.77-33.65-11.88-40.12-14.83-28.91-13.2-56.23-30.11-80.83-50.17-.51,7.02,6.34,21.16-6.36,18.85-1.49-.95-6.06-33-5-34.71,5.45-2.12,11.63-.86,17.4-1.1,4.63-.19,17.55-4.28,17.55,3.46,0,6.73-13.48,5.14-18.09,5.51Z"/>
    <path d="M57.81,371.94c-1.03,10.6-3.62,21.06-4.88,31.63-2.77,23.21-3.99,48.53-3.17,71.91.19,5.31,3.69,26.05,1.06,28.97-1.7,1.9-6.24,1.7-7.53-.52-.51-.88-1.33-6.9-1.48-8.51-.42-4.5-.85-10.43-1.06-14.94-1.69-37.42,1.81-74.78,8.03-111.54-.5-.68-10.71,9.49-13.64,9.79-2.5.25-5.4-2.95-5.33-5.32.11-3.89,19.63-16.13,22.42-20.52,1.59-1.32,3.78-1.34,5.57-.46,2.26,1.12,13.06,23.4,16,27.09.77,4.48-3.46,6.62-7.35,5.26-3.18-1.11-5.29-11.02-8.66-12.84Z"/>
    <g>
      <path d="M546.94,43.82c.86.76,6.6-1.02,10.12,2.11,2.62,2.33,2.25,7.09,2.91,7.86.32.37,7.02,1.67,9.19,3.32,2.98,2.27,3.19,6.27,5.08,7.92,2.26,1.96,5.82,1.48,8.56,5.44,2.05,2.97,1.84,7.02,2.13,7.37.35.42,7.55,3.23,9.78,4.72,2.66,1.77,8.22,7.13,10.12,7.88,5.97,2.34,12.95-1.3,14.76,9.28,1.31,7.67-4.45,13.39-11.85,13.89-6.1,30.58-8.6,61.94-14.23,92.57-1.42,7.71-2.38,19.66-12.19,20.81l-95.55-.5c-5.01-1.6-7.63-6.56-8.51-11.49l-16.41-101.56c-10.79,1.52-16.39-13.93-8.04-19.97,3.63-2.63,8.76-1.57,11.97-3.03,1.44-.66,9.35-11,12.55-13.45,2.59-1.99,9.94-4.76,10.28-5.23.5-.69.58-4.17,1.45-6.04,2.15-4.61,5.95-7.61,10.71-9.29,1.96-.69,4.93-.06,5.88-.63.32-.19,2.08-5.06,3.5-6.5,3.24-3.28,9.03-3.06,9.53-3.47.2-.16.66-3.31,1.67-4.83,5.01-7.56,18.64-8.41,24.53-1.6,1.45,1.68,1.89,4.26,2.07,4.42ZM549.52,68.11c-4.72,1.32-2.94,9.26,2.57,7.72,4.72-1.32,2.94-9.26-2.57-7.72ZM509.47,72.07c-3.74,1.23-2.55,8.22,2.63,6.75s2.13-8.32-2.63-6.75ZM598.81,112.97l-129,1,7.73,47.76,2.57,2.04,111.59-1.92,7.11-48.89Z"/>
      <path d="M533.06,11.71c-3.65-3.85-.94-12.86,6-11.59,12.41,2.27,1.9,19.91-6,11.59Z"/>
      <path d="M511.53,16.18c11.54-2.58,10.47,15.17-1.04,11.6-4.3-1.34-4.87-10.28,1.04-11.6Z"/>
      <path d="M563.51,25.13c7.41-2.25,10.09,8.94,3.57,10.69-7.06,1.89-9.68-8.83-3.57-10.69Z"/>
    </g>
    <path d="M509.72,776.99c1.12,3.05-1.68,6.88-7.83,1.59,0,0-5.13-4.41-12.73-3.45-4.78.6-7.6,3.74-8.69,5.75-1.14,2.12-1.97,3.49-2.86,5.98-7.03,19.63-6.6,42.72-11.16,62.88v.04c-.67,2.95-2.92,5.02-5.51,5.05l-122.96,1.59h0c-1.67-.44-3.02-1.93-3.48-3.89-4.02-17.12-5.8-34.97-9.31-52.27-2.59-12.75-3.86-29.22-16.15-31.91-2.9-.64-9.06-.98-5.25-4.54,1.7-1.59,5.61-4.22,12.16-4.45,51.49-.1,103.09-1.89,154.51-1,8.75.15,23.66.07,30.47,4.24,5.9,3.6,7.62,9.17,8.79,14.38Z"/>
    <path d="M900.91,428.39c-1.74-5.03-4.14-10.34-11.09-13.02-8.03-3.08-24.86-.59-34.75.67-38.19,4.86-76.37,10.9-114.55,16.86-1.34.21-2.68.42-4.03.63-18.62,2.9-37.24,5.77-55.86,8.47-7.38,1.29-11.58,4.56-13.38,6.43-4.01,4.19,2.97,3.54,6.3,3.71,14.1.71,16.87,17.03,20.82,29.42,5.36,16.8,8.8,34.43,14.73,50.96.33.94.91,1.74,1.65,2.31.14.11.3.22.45.31.64.41,1.37.66,2.14.73l138.75-21.46c2.34-.36,4.32-1.99,5.28-4.2.24-.56.41-1.14.52-1.76v-.04c3.53-20.97,1.18-44.08,7.55-64.92.8-2.64,1.63-4.16,2.75-6.47,1.06-2.2,4-5.8,9.35-7.17,8.52-2.2,14.66,1.4,14.66,1.4,7.37,4.31,10.23.02,8.72-2.87ZM706.08,447.24c.33-1.46,1.74-1.45,2.83-1.8,7.2-2.29,15.49-1.87,22.91-2.82,37.22-4.76,74.34-10.26,111.58-14.85l.28,1.74c-45.24,10.62-91.2,16.39-137.61,17.72Z"/>
  </g>
  <g>
    <path class="cls-1" d="M1069.4,421.49c5.71,53.64,22.4,105.15,51.16,150.69,62.55,99.03,166.99,159.67,284.75,164.41,3.08.29,2.25,3.85,1.02,6.04-.94,1.21-2.13,1.24-3.5,1.42-4.28.58-13.94-.62-18.8-1.03-168.08-14.49-307.05-150.94-322-319.19.82-4.21,4.09-4.4,7.37-2.34Z"/>
    <path class="cls-1" d="M1596.65,123.23c-1.22-3.4-7.86-15.99-3.96-18.26l5.05.13c.82,1.06,9.11,23.32,9.37,25.01.15.99.28,1.81-.3,2.71-.86,1.71-2.15,2.54-3.97,3.02-2.7.71-26.8,4.4-28.18,4.03-3.38-.9-3.17-5.84-.72-7.27,2.58-1.5,13.16-1.65,16.78-2.47.36-.25-.54-1.09-1-1.46-7.43-6.03-30.51-16.71-40.11-21.09-106.15-48.42-236.38-42.2-334.73,21.4-4.41,1.15-6.93-3.94-4.17-7.22,1.75-2.09,19.83-11.82,23.65-13.85,106.24-56.36,233.98-52.4,339.6,2.96,2.52,1.32,21.74,13.24,22.68,12.35Z"/>
    <g>
      <path d="M1121,232.15l-2.02.6c-10.57,19.9-35.83,17.53-47.3-.61-11.25,26.86-53.72,13.1-50.27-14.24.7-5.52,12.02-32.6,15.16-38.13,1.62-2.87,3-4.64,6.4-5.44l153.47-.34c3.56.5,4.78,1.28,6.7,4.16,2.93,4.39,15.6,34.99,16.35,39.91,4.12,27.05-38.96,40.24-50.6,14.1-10.81,19.1-38.09,19.95-47.89-.01Z"/>
      <path d="M1209.86,337.76h17.27c1.15,0,3.12,4.16,1.02,5.93-2.38,2-11.13.71-14.88.94-65.51,3.98-130.99-1.32-196.39.04-4.87-.93-2.51-6.91-.99-6.91h16.29v-87.85l7.9,2.96v84.89h26.65v-63.67c0-3.04,4.89-4.26,7.36-4.49,6.7-.62,25.31-.89,31.57.11,1.95.31,5.49,2.45,5.49,4.38v63.67h90.81v-84.4l7.9-4.44v88.84Z"/>
      <path d="M1145.44,263.97c5.18-.95,20.94-.85,26.41-.24,3.96.44,6.88,1.12,7.45,5.38.81,6,.8,26.65,0,32.67-.51,3.82-2.81,4.98-6.44,5.4s-26.99.43-29.13-.53c-2.24-1.01-3.7-4.48-3.99-6.87-.7-5.95-.81-24.85.09-30.56.56-3.55,2.19-4.63,5.6-5.26Z"/>
    </g>
    <path class="cls-1" d="M1771.49,451.12c4.54-.62,4.26,4.12,4.09,7.12-1.7,30.38-23.41,83.79-38.21,110.86-1.97,3.6-11.03,20.08-13.7,20.87-2.4.71-4.85.5-5.28-2.32-.49-3.23,9.82-18.23,12.07-22.5,18.35-34.73,31.78-72.46,37.55-111.49.47-1.34,2.19-2.37,3.48-2.54Z"/>
    <g>
      <path d="M1763.46,371.09c-4.04,3.82-92.79.63-105.27.88-6.57-2.94-5.32-27.48-4.81-34.43,5.57-75.63,109.3-74.91,112.81-.01.28,5.94-.82,11.2-1,16.67-.16,4.59,2.99,12.43-1.73,16.89Z"/>
      <path d="M1775.63,372.59v-45.68c0-6.39-10.02-24.16-14.26-29.63-1.63-2.1-4.61-3.99-5.92-5.96-.88-1.33-1.84-.8.04-2.34,2.07-1.71,9.3-4.83,12.1-5.7,31.36-9.73,64.12,7.9,72.44,39.74,2.47,9.47,3.47,32.17,1.97,41.79-.42,2.66-3.98,7.78-6.45,7.78h-59.91Z"/>
      <path d="M1782.5,209.18c44.04-4.06,46.73,63.49,3.22,63.49-40.34,0-43.86-59.74-3.22-63.49Z"/>
      <path d="M1706.56,209.2c43.75-4.66,46.96,63.18,3.03,63.27-39.67.08-43.34-58.97-3.03-63.27Z"/>
    </g>
    <path d="M1575.04,688.88c13.91-.18,25.62,10.06,29.96,22.73,16.62-1.46,30.35,5.95,39.24,19.76,3.33,5.17,12.49,25.5,7.08,29.8l-164.85.8c-6.47-1.91-.02-19.32,2.08-23.8,8.32-17.72,25.9-25.71,45-24.32,5.67-12.48,17.46-20.24,30.09-24.52-1.02-15.21,2.46-30.54,1.12-45.74-1.4-15.84-10.1-11.49-22.05-14.61-16.29-4.26-30.6-15.88-37.41-31.33-9.7-21.99-4.45-23.18,17.28-19.57,19.49,3.24,37.28,13.2,41.86,33.75,1.19,5.33-.44,13.97,4.85,17.48,1.27-10.17.23-19.22,3.72-28.94,8.79-24.5,32.83-41.37,58.74-43.22,19.09-1.36,15.76,6.22,11.16,21.47-6.61,21.91-20.86,34.94-42.68,40.96-7.06,1.95-17.12.57-20.86,7.78-2.42,4.66-3.97,16.55-4.35,22-.88,12.85.62,26.57,0,39.5ZM1572.4,718.86c-6.44,1.86-2.09,11.52,3.86,7.34,2.46-1.73,1.86-8.98-3.86-7.34ZM1544.9,735.98c-4.64,1.15-3.7,9.08.92,9.07,5.8,0,4.86-10.5-.92-9.07Z"/>
    <path d="M1552.3,385.65c1.62-3.43,3.03-5.32,5.01-8.24,1.87-2.77,6.54-7.08,13.94-7.88,11.79-1.28,19.21,4.84,19.21,4.84,8.91,7.34,13.61,2.07,12.2-2.15-1.27-7.19-3.35-14.89-12.05-19.92-10.05-5.8-32.97-5.79-46.39-6.05-51.84-1.05-103.91-.49-155.97-.04-1.83,0-3.66.03-5.49.05-25.38.21-50.76.39-76.11.32-10.1.28-15.32.8-18.1,2.98-6.21,4.9,2.16,8.49,6.56,9.38,18.62,3.8,18.9,26.54,21.57,44.16,2.75,18.2,4.91,49.77,5.78,63.83.26,4.17,2.31,8.03,5.62,10.57l.12.09c2.65,2.04,5.87,3.12,9.18,3.1l173.46-1.2c7.65-.05,28.74.59,31.37-14.2l10.08-79.65ZM1343.57,359.3c-1.38-.16-1.4-2.14-.02-2.36.02,0,.03,0,.05,0,10.06-1.68,21,.57,31.08.76,50.14.98,100.31.95,150.44,2.15.64.02,1.16.54,1.16,1.18v.17c0,.62-.47,1.14-1.09,1.19-60.68,5.15-121.3,3.93-181.61-3.09Z"/>
  </g>
</svg>