<?xml version="1.0" encoding="UTF-8"?>
<svg id="Layer_2" data-name="Layer 2" xmlns="http://www.w3.org/2000/svg" width="828.74" height="695.52" viewBox="0 0 828.74 695.52">
  <defs>
    <style>
      .cls-1 {
        stroke: #000;
        stroke-miterlimit: 10;
        stroke-width: 2px;
      }
    </style>
  </defs>
  <g id="Layer_1-2" data-name="Layer 1">
    <g>
      <path class="cls-1" d="M55.44,355.04c5.71,53.64,22.4,105.15,51.16,150.69,62.55,99.03,166.99,159.67,284.75,164.41,3.08.29,2.25,3.85,1.02,6.04-.94,1.21-2.13,1.24-3.5,1.42-4.28.58-13.94-.62-18.8-1.03-168.08-14.49-307.05-150.94-322-319.19.82-4.21,4.09-4.4,7.37-2.34h0Z"/>
      <path class="cls-1" d="M582.69,56.78c-1.22-3.4-7.86-15.99-3.96-18.26l5.05.13c.82,1.06,9.11,23.32,9.37,25.01.15.99.28,1.81-.3,2.71-.86,1.71-2.15,2.54-3.97,3.02-2.7.71-26.8,4.4-28.18,4.03-3.38-.9-3.17-5.84-.72-7.27,2.58-1.5,13.16-1.65,16.78-2.47.36-.25-.54-1.09-1-1.46-7.43-6.03-30.51-16.71-40.11-21.09C429.5-7.29,299.27-1.07,200.92,62.53c-4.41,1.15-6.93-3.94-4.17-7.22,1.75-2.09,19.83-11.82,23.65-13.85,106.24-56.36,233.98-52.4,339.6,2.96,2.52,1.32,21.74,13.24,22.68,12.35h0Z"/>
      <g>
        <path d="M107.04,165.7l-2.02.6c-10.57,19.9-35.83,17.53-47.3-.61-11.25,26.86-53.72,13.1-50.27-14.24.7-5.52,12.02-32.6,15.16-38.13,1.62-2.87,3-4.64,6.4-5.44l153.47-.34c3.56.5,4.78,1.28,6.7,4.16,2.93,4.39,15.6,34.99,16.35,39.91,4.12,27.05-38.96,40.24-50.6,14.1-10.81,19.1-38.09,19.95-47.89,0h0Z"/>
        <path d="M195.9,271.31h17.27c1.15,0,3.12,4.16,1.02,5.93-2.38,2-11.13.71-14.88.94-65.51,3.98-130.99-1.32-196.39.04-4.87-.93-2.51-6.91-.99-6.91h16.29v-87.85l7.9,2.96v84.89h26.65v-63.67c0-3.04,4.89-4.26,7.36-4.49,6.7-.62,25.31-.89,31.57.11,1.95.31,5.49,2.45,5.49,4.38v63.67h90.81v-84.4l7.9-4.44v88.84Z"/>
        <path d="M131.48,197.52c5.18-.95,20.94-.85,26.41-.24,3.96.44,6.88,1.12,7.45,5.38.81,6,.8,26.65,0,32.67-.51,3.82-2.81,4.98-6.44,5.4s-26.99.43-29.13-.53c-2.24-1.01-3.7-4.48-3.99-6.87-.7-5.95-.81-24.85.09-30.56.56-3.55,2.19-4.63,5.6-5.26h.01Z"/>
      </g>
      <path class="cls-1" d="M757.53,384.67c4.54-.62,4.26,4.12,4.09,7.12-1.7,30.38-23.41,83.79-38.21,110.86-1.97,3.6-11.03,20.08-13.7,20.87-2.4.71-4.85.5-5.28-2.32-.49-3.23,9.82-18.23,12.07-22.5,18.35-34.73,31.78-72.46,37.55-111.49.47-1.34,2.19-2.37,3.48-2.54h0Z"/>
      <g>
        <path d="M749.5,304.64c-4.04,3.82-92.79.63-105.27.88-6.57-2.94-5.32-27.48-4.81-34.43,5.57-75.63,109.3-74.91,112.81-.01.28,5.94-.82,11.2-1,16.67-.16,4.59,2.99,12.43-1.73,16.89h0Z"/>
        <path d="M761.67,306.14v-45.68c0-6.39-10.02-24.16-14.26-29.63-1.63-2.1-4.61-3.99-5.92-5.96-.88-1.33-1.84-.8.04-2.34,2.07-1.71,9.3-4.83,12.1-5.7,31.36-9.73,64.12,7.9,72.44,39.74,2.47,9.47,3.47,32.17,1.97,41.79-.42,2.66-3.98,7.78-6.45,7.78h-59.92Z"/>
        <path d="M768.54,142.73c44.04-4.06,46.73,63.49,3.22,63.49-40.34,0-43.86-59.74-3.22-63.49h0Z"/>
        <path d="M692.6,142.75c43.75-4.66,46.96,63.18,3.03,63.27-39.67.08-43.34-58.97-3.03-63.27Z"/>
      </g>
      <path d="M561.08,622.43c13.91-.18,25.62,10.06,29.96,22.73,16.62-1.46,30.35,5.95,39.24,19.76,3.33,5.17,12.49,25.5,7.08,29.8l-164.85.8c-6.47-1.91-.02-19.32,2.08-23.8,8.32-17.72,25.9-25.71,45-24.32,5.67-12.48,17.46-20.24,30.09-24.52-1.02-15.21,2.46-30.54,1.12-45.74-1.4-15.84-10.1-11.49-22.05-14.61-16.29-4.26-30.6-15.88-37.41-31.33-9.7-21.99-4.45-23.18,17.28-19.57,19.49,3.24,37.28,13.2,41.86,33.75,1.19,5.33-.44,13.97,4.85,17.48,1.27-10.17.23-19.22,3.72-28.94,8.79-24.5,32.83-41.37,58.74-43.22,19.09-1.36,15.76,6.22,11.16,21.47-6.61,21.91-20.86,34.94-42.68,40.96-7.06,1.95-17.12.57-20.86,7.78-2.42,4.66-3.97,16.55-4.35,22-.88,12.85.62,26.57,0,39.5l.02.02ZM558.44,652.41c-6.44,1.86-2.09,11.52,3.86,7.34,2.46-1.73,1.86-8.98-3.86-7.34ZM530.94,669.53c-4.64,1.15-3.7,9.08.92,9.07,5.8,0,4.86-10.5-.92-9.07Z"/>
      <path d="M590.09,322.58c-.98-7.24-2.75-15.02-11.23-20.39-9.81-6.2-32.71-7.11-46.11-7.91-51.76-3.13-103.81-4.67-155.84-6.31-1.83-.06-3.65-.12-5.49-.17-25.37-.81-50.74-1.65-76.06-2.74-10.1-.13-16.51,3.22-19.37,5.28-6.41,4.64,2.99,5.53,7.35,6.61,18.45,4.54,17.81,27.28,19.77,45,2.66,24.04,2.56,48.71,6.04,72.54.19,1.36.75,2.57,1.57,3.54.16.19.33.37.51.53.73.71,1.63,1.24,2.64,1.52l189.04,6.24c3.18.11,6.24-1.58,8.08-4.33.46-.69.85-1.43,1.15-2.24l.02-.06c10.18-27.42,13.16-59.21,27.06-85.72,1.76-3.37,3.25-5.2,5.34-8.03,1.98-2.69,6.82-6.82,14.25-7.31,11.83-.8,19,5.61,19,5.61,8.61,7.69,13.52,2.62,12.28-1.66h0ZM327.63,298.6c.83-1.88,2.68-1.52,4.22-1.71,10.12-1.27,20.96,1.41,31.02,2.01,50.44,3.02,100.96,5.01,151.38,8.27l-.09,2.42c-62.6,2.86-124.85-1.01-186.54-10.99h.01Z"/>
    </g>
  </g>
</svg>